<svg viewBox="0 0 16 16" xmlns="http://www.w3.org/2000/svg" xmlns:svg="http://www.w3.org/2000/svg"  class="ideal svg" fill="none"  >
  <path fill-rule="evenodd" clip-rule="evenodd" d="M9.199 1c1.937.035 3.573.597 4.738 1.636a5.76 5.76 0 011.519 2.204c.36.911.544 1.975.544 3.16 0 2.48-.697 4.331-2.07 5.505-1.13.964-2.722 1.465-4.731 1.492V15H0V1h9.199zm-.174.93H.926v12.14h8.099c4.07 0 6.049-1.985 6.049-6.07 0-2.061-.59-3.632-1.752-4.668-1.028-.917-2.514-1.402-4.297-1.402zm-4.03 5.645v4.39H2.35v-4.39h2.644zM3.696 3.883a1.497 1.497 0 110 2.994 1.497 1.497 0 010-2.994z" fill="#000"/>
  <path fill-rule="evenodd" clip-rule="evenodd" d="M8.898 12.076h-2.69V3.74h2.69-.11c2.244 0 4.631.887 4.631 4.178 0 3.479-2.387 4.156-4.63 4.156h.109z" fill="#DB4093"/>
</svg>

